<svg class="feather feather-bold" width="24" height="24" fill="none" stroke="currentColor" stroke-linecap="round" stroke-linejoin="round" stroke-width="2" version="1.1" viewBox="0 0 24 24" xmlns="http://www.w3.org/2000/svg" xmlns:cc="http://creativecommons.org/ns#" xmlns:dc="http://purl.org/dc/elements/1.1/" xmlns:rdf="http://www.w3.org/1999/02/22-rdf-syntax-ns#">
<path d="m7.1212 9.3097-1.3595 5.2307h-0.78337l-1.0995-4.3419-1.0749 4.3419h-0.7658l-1.3841-5.2307h0.71311l1.0995 4.3489 1.082-4.3489h0.70609l1.0925 4.3911 1.0925-4.3911z" style="stroke-width:.99568"></path>
<path d="m0.85634 19.649s3.2176-3.9007 7.2231-3.9007c4.0055 0 4.3667 2.4671 8.8647 2.0004 4.498-0.46675 6.1396-3.3339 6.1396-3.3339" style="fill:none;font-variation-settings:normal;stroke-linecap:butt;stroke-linejoin:miter;stroke-width:2"></path>
<path d="m12.792 10.892h-0.74122l-0.51288-1.4578h-2.2623l-0.51288 1.4578h-0.70609l1.904-5.2307h0.9274zm-1.4684-2.055-0.91686-2.5679-0.92037 2.5679z" style="stroke-width:.99568"></path>
<path d="m18.727 10.372-1.904 5.2307h-0.9274l-1.904-5.2307h0.74473l1.6405 4.6019 1.6405-4.6019z" style="stroke-width:.99568"></path>
<path d="m23.244 11.862h-3.4461v-5.2307h3.4461v0.61826h-2.7506v1.4332h2.7506v0.61826h-2.7506v1.9426h2.7506z" style="stroke-width:.99568"></path>

</svg>
